<?xml version="1.0" standalone="no"?><!-- Generator: Gravit.io --><svg xmlns="http://www.w3.org/2000/svg" xmlns:xlink="http://www.w3.org/1999/xlink" style="isolation:isolate" viewBox="0 0 16 16" width="16" height="16"><defs><clipPath id="_clipPath_rSd64mESfE38sqhDnokSn9ldGe36eHKS"><rect width="16" height="16"/></clipPath></defs><g clip-path="url(#_clipPath_rSd64mESfE38sqhDnokSn9ldGe36eHKS)"><rect width="16" height="16" style="fill:rgb(0,0,0)" fill-opacity="0"/><path d=" M 5 9 L 5 4 C 5 3.448 4.552 3 4 3 L 2 3 L 2 11 C 2 12.656 3.344 14 5 14 L 13 14 L 13 12 C 13 11.448 12.552 11 12 11 L 7 11 C 5.896 11 5 10.104 5 9 Z " fill="rgb(255,255,255)"/><path d=" M 8 4 L 6 2 L 14 2 L 14 10 L 12 8 L 12 4 L 8 4 Z " fill-rule="evenodd" fill="rgb(255,255,255)"/><path d=" M 8 6 L 8 4 L 12 8 L 10 8 C 8.896 8 8 7.104 8 6 Z " fill="rgb(255,255,255)"/></g></svg>