<?xml version="1.0" standalone="no"?><!-- Generator: Gravit.io --><svg xmlns="http://www.w3.org/2000/svg" xmlns:xlink="http://www.w3.org/1999/xlink" style="isolation:isolate" viewBox="0 0 24 24" width="24" height="24"><defs><clipPath id="_clipPath_1CIDxHfqADWCmPtcUCyXCz5F5q8VVBWR"><rect width="24" height="24"/></clipPath></defs><g clip-path="url(#_clipPath_1CIDxHfqADWCmPtcUCyXCz5F5q8VVBWR)"><rect width="24" height="24" style="fill:rgb(0,0,0)" fill-opacity="0"/><path d="M 3 0 L 21 0 C 22.656 0 24 1.344 24 3 L 24 21 C 24 22.656 22.656 24 21 24 L 3 24 C 1.344 24 0 22.656 0 21 L 0 3 C 0 1.344 1.344 0 3 0 Z" style="stroke:none;fill:#2E2E32;stroke-miterlimit:10;"/><path d=" M 9 13 L 9 7 C 9 6.448 8.552 6 8 6 L 6 6 L 6 15 C 6 16.656 7.344 18 9 18 L 18 18 L 18 16 C 18 15.448 17.552 15 17 15 L 11 15 C 9.896 15 9 14.104 9 13 Z " fill="rgb(225,225,230)"/><path d=" M 12 10 L 12 8 L 15 9 L 16 12 L 14 12 C 12.896 12 12 11.104 12 10 Z " fill="rgb(147,221,250)"/><path d=" M 18 6 L 10 6 L 18 14 L 18 6 Z " fill="rgb(255,169,77)"/><path d=" M 16 8 L 12 8 L 16 12 L 16 8 Z " fill="rgb(247,201,92)"/></g></svg>