<?xml version="1.0" standalone="no"?>
<!DOCTYPE svg PUBLIC "-//W3C//DTD SVG 20010904//EN"
 "http://www.w3.org/TR/2001/REC-SVG-20010904/DTD/svg10.dtd">
<svg version="1.0" xmlns="http://www.w3.org/2000/svg"
 width="700.000000pt" height="700.000000pt" viewBox="0 0 700.000000 700.000000"
 preserveAspectRatio="xMidYMid meet">
<metadata>
Created by potrace 1.14, written by Peter Selinger 2001-2017
</metadata>
<g transform="translate(0.000000,700.000000) scale(0.100000,-0.100000)"
fill="#000000" stroke="none">
<path d="M460 6984 c-219 -47 -399 -229 -445 -449 -22 -106 -22 -5964 0 -6070
47 -223 227 -403 450 -450 106 -22 5964 -22 6070 0 223 47 403 227 450 450 22
106 22 5964 0 6070 -47 223 -227 403 -450 450 -103 22 -5975 21 -6075 -1z
m2122 -1900 c61 -20 117 -70 153 -135 l30 -54 5 -955 5 -955 27 -50 c31 -60
77 -104 138 -136 l45 -24 955 -5 955 -5 54 -30 c29 -16 68 -47 87 -68 61 -72
64 -95 64 -449 l0 -318 -1312 2 -1313 3 -84 29 c-212 74 -383 245 -457 457
l-29 84 -3 1313 -2 1312 318 0 c262 0 327 -3 364 -16z m2518 -1001 l0 -1018
-218 218 -217 217 -456 0 c-537 0 -529 -1 -620 89 -90 91 -89 83 -89 620 l0
456 -217 217 -218 218 1018 0 1017 0 0 -1017z"/>
</g>
</svg>
