<?xml version="1.0" standalone="no"?>
<!DOCTYPE svg PUBLIC "-//W3C//DTD SVG 20010904//EN"
 "http://www.w3.org/TR/2001/REC-SVG-20010904/DTD/svg10.dtd">
<svg version="1.0" xmlns="http://www.w3.org/2000/svg"
 width="128.000000pt" height="128.000000pt" viewBox="0 0 128.000000 128.000000"
 preserveAspectRatio="xMidYMid meet">
<metadata>
Created by potrace 1.14, written by Peter Selinger 2001-2017
</metadata>
<g transform="translate(0.000000,128.000000) scale(0.100000,-0.100000)"
fill="#000000" stroke="none">
<path d="M18 1259 c-17 -18 -18 -62 -18 -619 0 -587 0 -600 20 -620 20 -20 33
-20 620 -20 587 0 600 0 620 20 20 20 20 33 20 620 0 587 0 600 -20 620 -20
20 -33 20 -622 19 -581 -1 -604 -1 -620 -20z m757 -239 c4 -6 13 -5 24 2 28
17 51 3 51 -32 0 -35 -23 -49 -51 -32 -11 7 -20 8 -24 2 -9 -15 -438 -13 -453
2 -15 15 -15 41 0 56 15 15 444 17 453 2z m250 -30 l0 -35 -80 0 c-76 0 -80 1
-83 23 -7 48 2 53 85 50 l78 -3 0 -35z m-790 0 c0 -10 -12 -16 -32 -18 -28 -3
-33 0 -33 18 0 18 5 21 33 18 20 -2 32 -8 32 -18z m0 -100 c0 -10 -12 -16 -32
-18 -28 -3 -33 0 -33 18 0 18 5 21 33 18 20 -2 32 -8 32 -18z m150 -100 c0
-21 -5 -26 -33 -28 -34 -3 -50 14 -38 44 4 10 16 14 38 12 28 -2 33 -7 33 -28z
m160 0 c0 -24 -3 -25 -62 -28 l-63 -3 0 31 0 31 63 -3 c59 -3 62 -4 62 -28z
m195 0 l0 -30 -80 0 -80 0 0 30 0 30 80 0 80 0 0 -30z m125 0 c0 -22 -5 -25
-43 -28 -44 -3 -61 11 -48 44 4 11 17 14 48 12 38 -3 43 -6 43 -28z m155 0 l0
-30 -60 0 -60 0 0 30 0 30 60 0 60 0 0 -30z m-785 0 c0 -10 -12 -16 -32 -18
-28 -3 -33 0 -33 18 0 18 5 21 33 18 20 -2 32 -8 32 -18z m645 -80 c8 -14 8
-26 0 -40 -10 -19 -21 -20 -283 -20 -281 0 -297 2 -297 40 0 38 16 40 297 40
262 0 273 -1 283 -20z m-645 -20 c0 -10 -12 -16 -32 -18 -28 -3 -33 0 -33 18
0 18 5 21 33 18 20 -2 32 -8 32 -18z m890 -100 l0 -35 -407 -3 c-399 -2 -407
-2 -418 18 -8 14 -8 26 0 40 11 20 19 20 418 18 l407 -3 0 -35z m-890 0 c0
-10 -12 -16 -32 -18 -28 -3 -33 0 -33 18 0 18 5 21 33 18 20 -2 32 -8 32 -18z
m330 -100 l0 -35 -95 0 c-92 0 -95 1 -98 23 -7 49 1 53 100 50 l93 -3 0 -35z
m120 0 l0 -35 -50 0 c-45 0 -50 2 -53 23 -6 44 4 53 55 50 48 -3 48 -3 48 -38z
m79 34 c24 -9 21 -61 -4 -69 -35 -11 -60 3 -60 35 0 35 26 49 64 34z m-529
-34 c0 -10 -12 -16 -32 -18 -28 -3 -33 0 -33 18 0 18 5 21 33 18 20 -2 32 -8
32 -18z m0 -100 c0 -10 -12 -16 -32 -18 -28 -3 -33 0 -33 18 0 18 5 21 33 18
20 -2 32 -8 32 -18z m149 -66 c10 -4 16 -18 16 -35 0 -22 -6 -30 -25 -35 -14
-3 -36 -3 -50 0 -19 5 -25 13 -25 35 0 37 38 53 84 35z m521 -34 l0 -35 -234
-3 c-240 -2 -261 0 -261 37 0 39 16 41 260 39 l235 -3 0 -35z m-670 0 c0 -10
-12 -16 -32 -18 -28 -3 -33 0 -33 18 0 18 5 21 33 18 20 -2 32 -8 32 -18z"/>
</g>
</svg>
